<svg width="17" height="17" viewBox="0 0 17 17" fill="none" xmlns="http://www.w3.org/2000/svg">
<path d="M4.93762 9.23468L4.93758 9.23468L1.45381 8.49998L4.93758 7.76527C4.93758 7.76527 4.93758 7.76527 4.93758 7.76527C6.35686 7.46598 7.466 6.35705 7.7653 4.9374C7.7653 4.93739 7.7653 4.93738 7.7653 4.93738L8.5 1.45376L9.2347 4.93738C9.2347 4.93738 9.2347 4.93739 9.23471 4.9374C9.534 6.35705 10.6431 7.46598 12.0624 7.76527L15.5462 8.49998L12.0624 9.23468L12.0624 9.23468C10.6431 9.53418 9.534 10.6431 9.2347 12.0624L8.5 15.5462L7.7653 12.0624C7.466 10.6431 6.35685 9.53418 4.93762 9.23468Z" fill="#F0F0F0" stroke="#60676B" stroke-width="0.6"/>
</svg>
