<svg width="56" height="42" viewBox="0 0 56 42" fill="none" xmlns="http://www.w3.org/2000/svg">
<path d="M5.44601 38.0209C5.20617 38.2305 4.96069 38.4358 4.70799 38.6341C4.28723 38.9641 3.84905 39.2796 3.37268 39.5591C3.21453 39.6511 3.05226 39.7395 2.88281 39.8202C3.46706 39.5066 4.28063 38.9515 5.44601 38.0209Z" fill="#8CC7EC"/>
<path d="M5.56554 38.1536L5.55891 38.1592C5.30341 38.3827 5.0617 38.5833 4.82026 38.7727C4.32537 39.1612 3.89471 39.4594 3.465 39.7116C3.29227 39.8118 3.13662 39.8956 2.98912 39.9663C2.97969 39.9711 2.97042 39.9752 2.96134 39.9797L2.87902 39.822L2.79639 39.6642C2.80098 39.662 2.8052 39.6594 2.80993 39.6569H2.81024C2.88418 39.6169 2.96103 39.5737 3.04094 39.5266C3.0832 39.5018 3.12655 39.4759 3.17037 39.4492C3.21435 39.4223 3.25878 39.3946 3.30464 39.3656C3.32446 39.3533 3.3444 39.3408 3.36434 39.3278C3.69272 39.1174 4.06372 38.8572 4.48101 38.5439C4.5685 38.4782 4.65834 38.41 4.75006 38.3394C4.93366 38.1984 5.12527 38.0482 5.32602 37.8882L5.33242 37.8831L5.44885 38.0182L5.56554 38.1536Z" fill="white"/>
<path d="M5.44885 38.0182L5.44788 38.0191C5.44711 38.0199 5.4465 38.0202 5.44587 38.0208C4.28044 38.9514 3.46692 39.5065 2.88263 39.82C2.88231 39.8203 2.88156 39.8203 2.8812 39.8206C2.88058 39.8211 2.87965 39.8217 2.87902 39.822L2.79639 39.6642C2.80098 39.6621 2.8052 39.6594 2.80975 39.6569H2.81006C2.88418 39.6169 2.96085 39.5738 3.0408 39.5266C3.08306 39.5018 3.12638 39.4759 3.17037 39.4492C3.21417 39.4223 3.25878 39.3946 3.30464 39.3656C3.32446 39.3533 3.34439 39.3408 3.36434 39.3278C3.69272 39.1174 4.06372 38.8572 4.48101 38.5439C4.5685 38.4782 4.65834 38.41 4.75005 38.3394C4.93353 38.1984 5.12527 38.0482 5.32584 37.8882L5.33243 37.8831L5.44885 38.0182Z" fill="#8CC7EC"/>
<path d="M5.44885 38.0182L5.33242 37.8831L5.32584 37.8882C5.12527 38.0482 4.93353 38.1984 4.75005 38.3394C4.65834 38.41 4.5685 38.4782 4.48101 38.5439C4.06372 38.8572 3.69272 39.1174 3.36434 39.3278C3.34439 39.3408 3.32446 39.3533 3.30464 39.3656C3.25878 39.3946 3.21417 39.4223 3.17037 39.4492C3.12638 39.4762 3.08306 39.5021 3.0408 39.5266C2.96085 39.5737 2.88418 39.6169 2.81006 39.6569H2.80975C2.8052 39.6594 2.80098 39.662 2.79639 39.6642L2.87902 39.822L2.96134 39.9797C2.97042 39.9752 2.97955 39.9711 2.98912 39.9663L2.99161 39.9637C3.63449 39.6157 4.47443 39.025 5.55896 38.1592L5.56554 38.1536L5.44885 38.0182Z" fill="white"/>
<path d="M13.1536 26.32C12.7016 26.9181 12.2497 27.5201 11.8092 28.1066L11.4335 28.6082C10.9111 29.3065 10.3707 30.0287 9.83652 30.7364C9.24849 31.5152 8.61473 32.3498 7.96308 33.1759C7.1935 34.1503 6.59309 34.8827 6.01605 35.5507C5.65512 35.9695 5.32246 36.3434 4.99937 36.6939C4.64838 37.0738 4.29608 37.4442 3.95149 37.7943C3.52445 38.2275 3.1888 38.5465 2.86304 38.8291C2.65104 39.0117 2.46257 39.1607 2.28632 39.2846C2.07711 39.4316 1.88711 39.5392 1.7206 39.6047L1.70554 39.62L1.66249 39.6262L1.65119 39.6302H1.63503C1.57172 39.6424 1.52003 39.6862 1.49902 39.7471C1.46727 39.8394 1.51766 39.9406 1.61179 39.9723C1.673 39.9926 1.73755 40.0025 1.80937 40.0025C2.04542 40.0025 2.36143 39.8955 2.77463 39.6761L2.78674 39.6645L2.80998 39.6568C2.80543 39.6594 2.80116 39.6621 2.79661 39.6642L2.87925 39.8221L2.96139 39.9797C2.97065 39.9753 2.97978 39.9711 2.98934 39.9661L2.97978 39.9759L2.9535 39.9844C2.47638 40.2388 2.11264 40.3572 1.80937 40.3572C1.69797 40.3572 1.59545 40.3413 1.49603 40.3081C1.21364 40.2136 1.06191 39.9108 1.15754 39.633C1.21613 39.4636 1.35419 39.3371 1.52586 39.291L1.54095 39.2756H1.58551C1.72518 39.221 1.8904 39.1272 2.07649 38.9959C2.24331 38.8787 2.42269 38.7372 2.62512 38.5626C2.94349 38.2868 3.27282 37.9736 3.69295 37.5472C4.03443 37.2001 4.38418 36.8327 4.73221 36.4555C5.0528 36.1078 5.38278 35.7365 5.74132 35.3208C6.31491 34.6568 6.91239 33.9281 7.67837 32.9581C8.32779 32.1345 8.96012 31.302 9.54704 30.5249C10.081 29.8178 10.6208 29.0958 11.1432 28.3973L11.5191 27.8954C12.0155 27.2342 12.5273 26.5533 13.0363 25.8804L13.1536 26.32Z" fill="white"/>
<path d="M40.8947 18.6923L40.313 20.3568L38.585 25.3036L37.7975 21.9188L37.0834 18.8478C37.8388 17.9362 38.5936 17.0339 39.329 16.1634C40.1946 15.1382 40.9773 14.2226 41.7226 13.3635C42.3332 12.6597 42.9018 12.0106 43.4405 11.404L40.8947 18.6923ZM22.5871 21.9862L21.3832 25.5452L21.0086 24.1358L20.8794 23.6491C21.4471 23.0967 22.0171 22.5419 22.5871 21.9862ZM26.0483 20.7115L27.1553 17.5285C27.5464 17.1475 27.9343 16.7692 28.3199 16.3939L29.3086 20.2588L27.7584 22.4319L26.9047 23.6342L26.0539 24.8391C25.5538 25.551 24.9624 26.3948 24.3656 27.2555C24.0706 27.6801 23.7636 28.1237 23.428 28.6101L26.0483 20.7115ZM37.786 7.3529C38.8727 6.35258 39.8193 5.50511 40.64 4.79668C40.9274 4.54839 41.1991 4.31746 41.4565 4.10318C41.31 4.27912 41.1604 4.46014 41.0139 4.64067C40.8821 4.80254 40.7587 4.95385 40.64 5.10026C40.4453 5.34004 40.2638 5.5654 40.0796 5.79778L39.6182 6.3787C39.4333 6.61133 39.2916 6.79174 39.1589 6.96255L38.2481 8.13249C37.6324 8.93155 37.0279 9.72412 36.4521 10.4885C36.1228 10.9259 35.7892 11.3711 35.4499 11.8255L35.4042 11.6293L35.228 10.8753L35.0124 9.94654C35.9829 9.0272 36.9103 8.15861 37.786 7.3529ZM44.1082 9.05844C43.1418 10.1146 42.1008 11.2874 40.8996 12.6726C40.1416 13.5469 39.3557 14.4659 38.4972 15.4826C37.9411 16.141 37.3653 16.8281 36.7779 17.5333L36.2299 15.179C36.9525 14.0891 37.6841 12.9749 38.4287 11.83C39.018 10.9229 39.5942 10.028 40.0307 9.34937L41.6183 6.86299C41.7953 6.58583 41.972 6.3085 42.1487 6.03103C42.2277 5.90676 42.3073 5.78183 42.3876 5.65616C42.4724 5.67486 42.5544 5.69511 42.6328 5.71737C42.634 5.71768 42.6351 5.71799 42.6364 5.71829C42.6891 5.73222 42.7441 5.74892 42.8019 5.76898C43.0577 5.85356 43.28 5.96193 43.4619 6.09084C43.5442 6.1493 43.6225 6.21577 43.6943 6.28843C44.0623 6.66036 44.2487 7.20264 44.2487 7.89937C44.2487 8.19463 44.2016 8.58357 44.1082 9.05844ZM29.1461 26.9127L26.8461 29.7934L26.5582 30.1488L26.417 30.3201C26.4009 30.3394 26.3829 30.3603 26.3645 30.3816L26.2698 30.492C26.0381 30.7623 25.8476 30.9834 25.67 31.1874C25.2656 31.652 24.8552 32.113 24.4512 32.5571C23.5558 33.5401 22.7256 34.403 21.9131 35.1953C21.5714 35.5284 21.2491 35.8334 20.9372 36.1183L21.0493 35.7807C21.6667 35.0888 22.2982 34.3537 22.9789 33.5339C23.5764 32.8153 24.188 32.0578 24.849 31.2178C25.4603 30.4411 26.0699 29.6495 26.6609 28.865C27.2029 28.1472 27.7801 27.3678 28.425 26.4817L28.4556 26.4394C28.7304 26.06 29.015 25.6678 29.2913 25.2804C29.5881 24.866 29.8897 24.4398 30.1484 24.0734C30.182 24.0259 30.2151 23.9788 30.2483 23.9323L30.5596 25.1495C30.1175 25.699 29.6494 26.2832 29.1461 26.9127ZM23.3433 19.7498C22.4189 20.652 21.4897 21.5585 20.5635 22.4597L20.1443 20.8803C20.157 20.8629 20.1695 20.8456 20.182 20.828C20.4779 20.4177 20.7817 19.9933 21.0849 19.5661L21.5338 18.9337L21.9793 18.299L22.8668 17.0294C23.1051 16.6887 23.3441 16.3404 23.5751 16.0035L24.6219 14.473L25.4865 13.1877L25.6402 12.9584L23.3433 19.7498ZM27.0557 4.48547C27.0527 4.52057 27.0488 4.5558 27.0449 4.59028L27.0413 4.62385C27.0311 4.7107 27.018 4.80097 27.0011 4.90193C26.9859 4.99574 26.9682 5.08808 26.9493 5.17571C26.9327 5.2513 26.9109 5.3513 26.8863 5.45134C26.7945 5.81583 26.6739 6.17883 26.5277 6.53035C26.5087 6.5758 26.4897 6.62093 26.4697 6.66575C26.4537 6.70287 26.4372 6.73981 26.4203 6.77614C26.4196 6.77846 26.4187 6.7803 26.4173 6.78232C26.4127 6.79253 26.4082 6.80257 26.4031 6.81291C26.4028 6.81449 26.4019 6.81619 26.4013 6.81742C26.3977 6.82544 26.3941 6.8335 26.3898 6.84169C26.3799 6.86317 26.3699 6.88451 26.3593 6.90585C26.3494 6.92653 26.3397 6.94681 26.3295 6.96706C26.3196 6.98743 26.3095 7.00769 26.299 7.0281C26.2855 7.05514 26.2717 7.08205 26.2577 7.10864C26.2571 7.11066 26.256 7.11267 26.255 7.11421C26.2445 7.13415 26.2345 7.15409 26.2236 7.17389C26.2213 7.17854 26.2191 7.18331 26.2161 7.18778C26.2086 7.20233 26.2007 7.21688 26.1925 7.23126C26.1925 7.23186 26.1922 7.23261 26.1914 7.23323C26.1896 7.23774 26.1872 7.24208 26.1842 7.24637C26.176 7.26232 26.1673 7.2784 26.1583 7.294C26.1573 7.29571 26.1564 7.29773 26.1551 7.29939C26.1453 7.3167 26.1354 7.33418 26.1256 7.35167C26.1256 7.35259 26.125 7.3529 26.1244 7.35382C26.1245 7.35412 26.1245 7.35412 26.1241 7.35443C26.1223 7.35816 26.1204 7.36187 26.1177 7.36556C26.1069 7.38506 26.0951 7.40482 26.0837 7.42446C26.0765 7.43729 26.0689 7.44995 26.0611 7.4628C26.0406 7.49741 26.0201 7.53208 25.9992 7.56577C25.7858 7.91265 25.5448 8.23634 25.283 8.52805C25.0053 8.83877 24.6967 9.12027 24.3653 9.36514C24.1949 9.49068 24.0152 9.6083 23.8324 9.71482C23.6427 9.82429 23.4482 9.92275 23.2558 10.0074C23.052 10.0956 22.8465 10.172 22.6453 10.2342C22.4316 10.2996 22.2186 10.353 22.0127 10.3924C21.7955 10.4332 21.5789 10.463 21.3694 10.481C21.1561 10.4987 20.9397 10.5068 20.7264 10.5049C20.515 10.502 20.3009 10.4899 20.0912 10.4694C19.8946 10.4497 19.6913 10.4207 19.4704 10.3812C19.0821 10.31 18.6819 10.2078 18.2811 10.0766C18.2339 10.061 18.187 10.0455 18.1398 10.0294C18.0926 10.0132 18.0455 9.99681 17.9986 9.98011C17.9513 9.96324 17.9042 9.94623 17.8569 9.92875C17.8337 9.91994 17.8101 9.91131 17.7866 9.90232C17.763 9.89351 17.7393 9.8844 17.7157 9.87512C17.6747 9.85965 17.6334 9.84361 17.5924 9.82704C17.5649 9.81609 17.5374 9.80526 17.5095 9.79365C17.3889 9.7448 17.2684 9.69348 17.1472 9.63967C17.1409 9.63704 17.1349 9.63411 17.1288 9.63134C17.0924 9.61509 17.0556 9.59874 17.019 9.58188C16.9282 9.54077 16.8367 9.4976 16.7452 9.45309C16.7076 9.43516 16.6699 9.41675 16.6321 9.39805C16.589 9.37675 16.5456 9.35523 16.5024 9.33328C16.3719 9.26746 16.2406 9.19837 16.1082 9.12646L16.0347 9.0861C15.975 9.05318 15.9131 9.01932 15.8538 8.98518L15.1508 8.58261C14.8498 8.41197 14.54 8.24222 14.2299 8.07869C13.926 7.91808 13.6151 7.76331 13.3056 7.61892C12.9929 7.47222 12.6802 7.33835 12.3759 7.22165C12.2238 7.1632 12.0671 7.1065 11.9091 7.05286C11.7609 7.004 11.6033 6.95546 11.441 6.91C11.117 6.81926 10.8004 6.75064 10.5018 6.70611C10.1967 6.65836 9.8794 6.63285 9.5588 6.62974C9.40583 6.62864 9.24752 6.63285 9.08653 6.64332C8.93716 6.65384 8.78374 6.67023 8.61693 6.69328C8.58318 6.69805 8.5497 6.70318 8.51595 6.70857C8.50024 6.71121 8.48452 6.714 8.46916 6.71646C8.46818 6.71646 8.46742 6.71646 8.4668 6.71676C8.43929 6.72141 8.41213 6.72619 8.38448 6.731C8.38386 6.73131 8.38324 6.73131 8.38261 6.73131C8.34428 6.73841 8.30626 6.74551 8.26828 6.75327C8.22915 6.76098 8.1902 6.76905 8.15155 6.77737C8.11246 6.78587 8.07382 6.79454 8.03486 6.80397C8.00473 6.81107 7.97458 6.81803 7.94439 6.82574C7.94078 6.82636 7.93688 6.82745 7.93327 6.82868C7.92271 6.831 7.91207 6.83381 7.90152 6.83687C7.89791 6.83736 7.8943 6.83797 7.8907 6.83938C7.86087 6.84677 7.83132 6.8548 7.80148 6.86299C7.77197 6.87057 7.74276 6.87907 7.71338 6.88744C7.70928 6.88854 7.70554 6.88928 7.70158 6.89099C7.6917 6.89362 7.68181 6.89638 7.67206 6.89932C7.66217 6.90181 7.65243 6.90488 7.64254 6.90816C7.6259 6.91264 7.60942 6.91772 7.59277 6.92285C7.59117 6.92316 7.58912 6.92346 7.58711 6.92486C7.57345 6.92903 7.55898 6.93336 7.54518 6.93766C7.5312 6.94155 7.51704 6.94585 7.50292 6.95098C7.45578 6.96549 7.40885 6.98064 7.36171 6.99721C7.34617 7.00199 7.33077 7.00738 7.31553 7.01281C7.25223 7.03459 7.18896 7.05734 7.12566 7.0813C7.10869 7.08747 7.09156 7.09397 7.07445 7.10076C7.05135 7.10926 7.02811 7.11837 7.00473 7.12767C6.98996 7.13371 6.97536 7.13941 6.96044 7.14558C6.93061 7.1572 6.90061 7.16942 6.87073 7.18191C6.83213 7.19817 6.79331 7.21425 6.75497 7.23095C6.45455 7.36092 6.15096 7.50994 5.85267 7.67396C5.72361 7.7446 5.58332 7.82576 5.41089 7.92995L5.40729 7.93197C5.29452 8.00383 5.14719 8.09941 5.00646 8.20295C4.4971 8.56608 4.02843 9.0286 3.61194 9.57876C3.40963 9.84978 3.2279 10.1326 3.07146 10.4182C2.90735 10.7145 2.76084 11.0229 2.63658 11.3341C2.51138 11.6468 2.39991 11.9735 2.30517 12.3061C2.26042 12.4666 2.21737 12.6354 2.17779 12.8075C2.1392 12.9729 2.10336 13.1448 2.07147 13.3187C2.00741 13.6772 1.95982 14.0264 1.92968 14.3567C1.91097 14.5677 1.89949 14.7298 1.89321 14.8817C1.8896 14.967 1.886 15.0556 1.88378 15.1445L1.88209 15.2753L1.88284 15.4191C1.88315 15.5171 1.80261 15.5974 1.70284 15.5977C1.61536 15.599 1.54123 15.5378 1.52489 15.454L1.51047 15.3793L1.47481 15.1736C1.45865 15.072 1.44592 14.9826 1.43616 14.901C1.41279 14.7087 1.39583 14.5294 1.3842 14.3527C1.35968 13.9771 1.3542 13.6053 1.36818 13.2471C1.37477 13.0613 1.38621 12.8749 1.40224 12.6929C1.41876 12.5125 1.44057 12.3258 1.4676 12.1384C1.52619 11.7371 1.59999 11.3765 1.69295 11.0345C1.74087 10.8543 1.7963 10.6709 1.85755 10.4892C1.9185 10.3061 1.98572 10.1258 2.05781 9.9529C2.20326 9.60229 2.37836 9.25353 2.57723 8.91687C2.78438 8.57056 3.01322 8.24795 3.25871 7.95607C3.38809 7.79872 3.5257 7.65127 3.65558 7.51551C3.77965 7.39076 3.92826 7.24484 4.08987 7.10522C4.24645 6.96675 4.41322 6.83767 4.55489 6.73069L4.60471 6.69359C4.66593 6.64814 4.72656 6.60283 4.78657 6.55941C4.81249 6.541 4.83808 6.52247 4.864 6.50376C4.91569 6.46682 4.96956 6.428 5.02387 6.39135C5.11594 6.32783 5.20609 6.26709 5.29452 6.20973C5.32403 6.19027 5.35324 6.17126 5.38245 6.15298C5.43458 6.11928 5.48627 6.08682 5.53747 6.05544C5.55647 6.04387 5.57549 6.03226 5.59418 6.02068C5.63782 5.99408 5.68105 5.96828 5.72392 5.94352C5.75188 5.92714 5.77965 5.91092 5.80713 5.89515C5.83495 5.87937 5.8626 5.86391 5.88976 5.84878C5.90814 5.8384 5.92649 5.82837 5.94456 5.81877C5.96972 5.80457 5.99501 5.79094 6.01994 5.77767C6.16993 5.6959 6.33911 5.61132 6.55081 5.51164C6.73142 5.42829 6.91819 5.34915 7.1054 5.2765C7.4767 5.1329 7.86996 5.01464 8.27345 4.92481C8.47103 4.88199 8.67583 4.84549 8.88143 4.81674C9.08858 4.78909 9.29667 4.76915 9.49915 4.75675C9.90892 4.73449 10.3248 4.74304 10.7355 4.78199C11.1189 4.81796 11.5241 4.88383 11.938 4.97708C12.133 5.02221 12.329 5.07261 12.5194 5.12717C12.7134 5.18312 12.9045 5.24294 13.0861 5.30384C13.4426 5.42584 13.7991 5.56277 14.1757 5.72311C14.5061 5.86456 14.8456 6.02192 15.2147 6.20385C15.5824 6.38427 15.9414 6.57549 16.2127 6.72189C16.3674 6.80537 16.5332 6.89577 16.7008 6.99069L16.7922 7.04174L16.9295 7.11837C16.9799 7.14668 17.0308 7.1742 17.0812 7.20124C17.105 7.21395 17.1288 7.22643 17.1539 7.24037C17.8055 7.58462 18.3991 7.8414 18.9694 8.02518C19.1116 8.07062 19.261 8.11483 19.4275 8.16001C19.5949 8.20484 19.7602 8.24038 19.8853 8.2668C20.0349 8.29743 20.1883 8.32354 20.3403 8.34397C20.493 8.36513 20.645 8.38029 20.7915 8.38848C20.9447 8.39835 21.0949 8.40159 21.2376 8.39835C21.3947 8.39558 21.5382 8.38677 21.6764 8.37131C21.8302 8.35522 21.9719 8.33314 22.1082 8.30483C22.2606 8.27455 22.3995 8.23976 22.5326 8.19861C23.0881 8.03061 23.6276 7.74973 24.1362 7.36354C24.19 7.32293 24.2437 7.28103 24.2971 7.23743C24.3053 7.23095 24.3131 7.22442 24.321 7.21793C24.3457 7.19817 24.3702 7.17775 24.3952 7.15671C24.4076 7.14651 24.42 7.13586 24.4325 7.12521C24.4449 7.11482 24.457 7.10418 24.4694 7.09317C24.4803 7.08423 24.4911 7.07495 24.502 7.06522C24.5183 7.05097 24.5345 7.03691 24.5508 7.02193C24.5668 7.00768 24.583 6.99318 24.5993 6.97849C24.6807 6.90488 24.7616 6.82837 24.8418 6.74831C24.852 6.73841 24.8621 6.72838 24.8723 6.718C24.8933 6.69744 24.9139 6.6764 24.9347 6.65555C24.9634 6.62601 24.9923 6.59653 25.0208 6.5662C25.0466 6.53898 25.0722 6.51195 25.0978 6.48413C25.1063 6.47514 25.1142 6.46651 25.122 6.45771C25.1421 6.4365 25.1614 6.41515 25.1808 6.39355C25.201 6.37129 25.2211 6.34903 25.2407 6.32646C25.2613 6.30354 25.2816 6.28037 25.302 6.25688C25.3273 6.22765 25.3524 6.19846 25.3777 6.16862C25.4022 6.14 25.4269 6.11065 25.4511 6.08094C25.4796 6.0468 25.5078 6.01232 25.536 5.9774C25.746 5.71675 25.9525 5.43649 26.1489 5.14478C26.1986 5.07199 26.2472 5.00039 26.296 4.9245L26.4363 4.70361C26.4691 4.65101 26.5015 4.59769 26.534 4.54436L26.6752 4.30769C26.6835 4.29349 26.692 4.27912 26.6992 4.26798L26.7303 4.22206C26.7864 4.13859 26.9007 4.11616 26.9855 4.17119C27.0407 4.20708 27.0717 4.26965 27.0675 4.33477L27.0557 4.48547ZM25.3914 9.36576L24.4531 10.5938L20.7071 15.5066L19.2306 17.4426L18.9438 16.3639L17.2853 10.122C17.285 10.1208 17.2847 10.1194 17.2844 10.118C17.2808 10.1055 17.2772 10.0929 17.2733 10.0807C17.5725 10.2056 17.8695 10.3157 18.1673 10.4132C18.5839 10.5493 19.0002 10.6562 19.4052 10.73C19.6362 10.7717 19.8486 10.8016 20.0551 10.8226C20.2753 10.8438 20.4996 10.8566 20.7221 10.8597C20.9472 10.8617 21.1754 10.8532 21.4002 10.8345C21.6224 10.8155 21.8511 10.7839 22.0812 10.7406C22.3001 10.6987 22.526 10.6424 22.7531 10.5729C22.9671 10.5065 23.1855 10.4254 23.4021 10.3316C23.6072 10.2414 23.8134 10.1372 24.0149 10.0209C24.21 9.90745 24.4003 9.78222 24.5816 9.64913C24.9326 9.38924 25.2597 9.09136 25.5538 8.76271C25.7867 8.50285 26.0044 8.21873 26.2013 7.91681C26.2279 8.00989 26.2541 8.10664 26.28 8.20681L25.3914 9.36576ZM55.5526 2.83512C55.5507 2.71484 55.5369 2.60385 55.5113 2.49671C55.4802 2.36656 55.4326 2.24567 55.3692 2.13729C55.296 2.01443 55.202 1.90484 55.0975 1.82058C54.9935 1.7363 54.8732 1.66707 54.7494 1.62006C54.5491 1.54354 54.3384 1.51002 54.0857 1.51296C53.9081 1.5162 53.7277 1.53828 53.5171 1.58341C53.2087 1.65161 52.8972 1.75642 52.5361 1.91347C52.2583 2.0345 51.9704 2.17998 51.6568 2.35776C51.4179 2.49394 51.1757 2.64267 50.9269 2.80541H44.241C44.2979 2.72255 44.3543 2.64188 44.4097 2.5638C44.4743 2.47291 44.5429 2.38063 44.615 2.28773C44.6304 2.26701 44.6464 2.24738 44.6615 2.22866L44.7089 2.17257C44.7149 2.16543 44.7201 2.15943 44.7251 2.1543C44.7834 2.14133 44.8394 2.11907 44.8902 2.08848C45.1443 1.93481 45.2245 1.60646 45.0689 1.35635C44.9462 1.15972 44.746 1.03572 44.5044 1.00714C44.1 0.959377 43.4612 1.10806 41.3526 2.80541H40.8082C40.7154 2.80541 40.64 2.87934 40.64 2.9707V3.39133C39.7093 4.17119 38.5439 5.19938 37.0746 6.55091C36.3309 7.23494 35.5495 7.96458 34.7355 8.73256C34.7033 8.56408 34.6778 8.39063 34.6593 8.21487C34.6299 7.93894 34.6149 7.63132 34.6149 7.30001C34.6149 6.68166 34.7819 6.25193 35.1255 5.98651C35.4796 5.71382 36.1044 5.55397 36.9824 5.51084C37.0716 5.50638 37.142 5.43385 37.142 5.34573V2.9707C37.142 2.87934 37.0665 2.80541 36.9739 2.80541H32.3485C32.4815 2.64635 32.6048 2.50814 32.7225 2.3848C32.8066 2.29732 32.8866 2.22095 32.961 2.1568C32.9963 2.12617 33.0331 2.09698 33.0672 2.07253C33.0868 2.05833 33.1071 2.04642 33.1223 2.03743C33.1314 2.03204 33.1389 2.02709 33.1452 2.02323L33.2415 1.95878C33.4215 1.83806 33.509 1.61711 33.4599 1.40858C33.394 1.1277 33.1079 0.951936 32.8217 1.0167C32.6863 1.04763 32.5894 1.09167 32.5077 1.13129C32.4369 1.16652 32.3658 1.20657 32.2846 1.25802C32.1407 1.34907 32.0191 1.44228 31.9188 1.52159C31.6786 1.71189 31.4685 1.90606 31.2948 2.071C31.122 2.23515 30.9411 2.41648 30.7254 2.64158C30.672 2.69767 30.6202 2.75227 30.5701 2.80541H23.0785C22.9858 2.80541 22.9108 2.87934 22.9108 2.9707V5.34573C22.9108 5.43709 22.9858 5.51084 23.0785 5.51084H23.4394C23.9153 5.51084 24.3289 5.57811 24.6687 5.71027C24.8267 5.77162 24.972 5.848 25.1035 5.93844C24.7173 6.39386 24.3187 6.77815 23.9166 7.08252C23.4417 7.44272 22.9406 7.7038 22.4258 7.8598C22.3037 7.89749 22.1764 7.92904 22.035 7.95748C21.9095 7.9836 21.7798 8.00353 21.6369 8.01869C21.5093 8.03294 21.3763 8.04095 21.2304 8.04359C21.0974 8.04683 20.9577 8.04359 20.8135 8.03429C20.676 8.02644 20.5337 8.01251 20.3901 7.99227C20.2451 7.97295 20.1004 7.94836 19.9598 7.91944C19.8395 7.89412 19.6808 7.86011 19.5228 7.81773C19.3623 7.77414 19.2177 7.73163 19.0815 7.68803C18.5318 7.51056 17.9569 7.26201 17.3264 6.92872C17.3022 6.9154 17.2778 6.90261 17.2537 6.88959C17.2054 6.86378 17.1575 6.83797 17.1087 6.81027L16.9205 6.7052C17.0334 6.48474 17.1959 6.28996 17.4096 6.11806C17.6014 5.96346 17.8209 5.8384 18.0622 5.7455C18.4181 5.60729 18.8402 5.52846 19.3168 5.51084C19.4066 5.50773 19.4776 5.43569 19.4787 5.34744L19.5013 2.97237C19.502 2.92803 19.4842 2.88583 19.4528 2.85458C19.4212 2.82321 19.3784 2.80541 19.3334 2.80541H4.22022C4.17531 2.80541 4.13244 2.82321 4.101 2.85458C4.06944 2.88583 4.05185 2.92803 4.05247 2.97237L4.07509 5.34744C4.07602 5.43649 4.14842 5.50913 4.23924 5.51084C4.68623 5.52136 5.10054 5.57549 5.4811 5.67254C5.26873 5.79913 5.04947 5.94028 4.81797 6.09965C4.76098 6.13878 4.70537 6.17883 4.65119 6.21743C4.62635 6.23509 4.6011 6.25315 4.57421 6.27248C4.51126 6.3184 4.44969 6.36415 4.3875 6.41068L4.33629 6.44841C4.18848 6.56032 4.01476 6.6945 3.85018 6.83967C3.68085 6.98639 3.5257 7.13879 3.3966 7.2685L3.39441 7.27095C3.25933 7.41227 3.11544 7.56608 2.97943 7.73163C2.72343 8.03649 2.48361 8.37455 2.26625 8.73751C2.05812 9.08903 1.87594 9.45278 1.72421 9.81841C1.64915 9.99908 1.57862 10.1874 1.51519 10.3782C1.45187 10.5666 1.39409 10.7572 1.34462 10.9436C1.24784 11.2984 1.17122 11.6726 1.11058 12.0883C1.0828 12.2822 1.06019 12.4751 1.04304 12.6615C1.0264 12.85 1.01464 13.0429 1.00805 13.2341C0.993268 13.6039 0.998924 13.9877 1.02435 14.3751C1.03663 14.5588 1.0539 14.7446 1.07822 14.9429C1.08828 15.0287 1.10181 15.122 1.11891 15.2298L1.14277 15.3725L1.17091 15.5203C1.21944 15.7712 1.44262 15.9525 1.70253 15.9525H1.70458C2.00269 15.9515 2.24426 15.7114 2.24332 15.4163L2.24266 15.2768L2.24426 15.151C2.24631 15.0667 2.24992 14.98 2.25353 14.8961C2.2593 14.75 2.27048 14.5933 2.28887 14.3881C2.31807 14.0678 2.36425 13.7288 2.42658 13.381C2.45707 13.2133 2.49144 13.0471 2.52946 12.8865C2.5678 12.7191 2.6091 12.5555 2.6526 12.4017C2.74369 12.0809 2.8513 11.7654 2.9719 11.4641C3.09078 11.1664 3.23075 10.8716 3.38876 10.587C3.53733 10.3152 3.71024 10.0464 3.90168 9.78962C4.2956 9.2693 4.73836 8.83229 5.22021 8.48865C5.35324 8.39063 5.49348 8.29958 5.60108 8.23126C5.76818 8.1303 5.90387 8.05164 6.02813 7.9839C6.31649 7.82545 6.61019 7.68124 6.90029 7.55587C7.17356 7.43699 7.44857 7.33602 7.7242 7.25395C8.18391 7.93845 8.5659 8.86678 8.86304 10.028L12.5339 23.8129L13.0044 25.5798L13.1217 26.0193C13.2483 25.8515 13.375 25.684 13.5017 25.5171C14.3262 24.4276 15.174 23.3252 15.994 22.259C16.4129 21.7146 16.8318 21.17 17.2497 20.6246L19.1237 18.1736L19.3469 17.8807L20.9954 15.7194L24.7416 10.8071L25.6793 9.57942L26.3888 8.65373L26.6202 8.35181C26.8027 8.11286 26.9899 7.86996 27.1708 7.63549C27.3015 7.46621 27.4324 7.29646 27.5621 7.12718L28.9789 5.2907L29.9717 4.01585L30.1946 3.75583C30.2984 3.63711 30.3787 3.54606 30.4551 3.46104C30.6144 3.28187 30.7891 3.09357 30.9883 2.88473C31.0142 2.8577 31.0397 2.83123 31.0644 2.80541C31.2429 2.62054 31.3973 2.46674 31.5451 2.32652C31.7133 2.16714 31.9159 1.97977 32.1449 1.798C32.2376 1.72443 32.3497 1.63845 32.4792 1.55638C32.5508 1.51155 32.6094 1.47816 32.6684 1.44894C32.7336 1.41739 32.8054 1.38478 32.9034 1.36239C32.9951 1.34166 33.0874 1.39806 33.1088 1.48868C33.1245 1.55577 33.0964 1.62671 33.0386 1.66519L32.9442 1.72842L32.9348 1.73416C32.9167 1.74481 32.8866 1.7629 32.8549 1.78577C32.8123 1.81641 32.7667 1.85255 32.7231 1.89042C32.6408 1.9614 32.5527 2.04532 32.4606 2.14133C32.3062 2.30254 32.1446 2.48715 31.9652 2.70621C31.9389 2.73912 31.9119 2.77202 31.885 2.80541C31.6262 3.12807 31.357 3.48576 31.046 3.92125C30.966 4.03329 30.8943 4.13548 30.8258 4.2343L30.7184 4.39056L30.0009 5.54008L29.8092 5.84971L29.3981 6.50516C29.1349 6.92486 28.8525 7.37345 28.5715 7.81217C28.4919 7.93675 28.4126 8.0612 28.3332 8.18582C28.1386 8.49094 27.9373 8.80649 27.7372 9.11457L26.8947 10.412L26.0867 11.6391L26.0433 11.7045L25.6166 12.3494L25.1859 12.9924L24.322 14.2759L23.4485 15.5538L23.2762 15.8052C23.0459 16.1413 22.8071 16.4888 22.57 16.8284L21.6827 18.0977L21.2376 18.7311L20.7897 19.363C20.5337 19.7233 20.277 20.082 20.0249 20.432C19.9791 20.4958 19.9332 20.5597 19.8877 20.6229C19.6031 21.0191 19.3056 21.4294 18.9788 21.8773C17.9 23.3555 16.6122 25.0994 15.2385 26.8237C14.7755 27.4058 14.2954 27.9965 13.8051 28.5859C13.6277 28.7991 13.4489 29.0125 13.2692 29.225C12.872 29.6937 12.4679 30.1616 12.0683 30.6159L12.3293 30.8604C12.872 30.351 13.4272 29.8265 13.9926 29.2897C16.1164 27.2733 18.3816 25.0816 20.6688 22.8562C21.4753 22.0717 22.2844 21.2827 23.0911 20.4955C23.5137 20.0829 23.9359 19.6706 24.3568 19.2601L24.3837 19.2342C25.4999 18.1446 26.6015 17.0691 27.6811 16.0181C27.8263 15.8765 27.9711 15.7355 28.1157 15.5953C30.4974 13.2776 32.7631 11.0879 34.8245 9.1396C35.6954 8.3175 36.5296 7.53777 37.3207 6.80997C38.6676 5.57066 39.7568 4.6065 40.64 3.85831C41.1284 3.4448 41.5541 3.09699 41.9258 2.80541C43.5638 1.52036 44.1548 1.32356 44.4615 1.35928C44.5929 1.37519 44.6968 1.43811 44.7614 1.5417C44.8132 1.62518 44.7864 1.7349 44.7014 1.78608C44.6781 1.80032 44.6522 1.80865 44.6248 1.81128L44.568 1.81641L44.4821 1.88814L44.4727 1.89927C44.4683 1.90405 44.4645 1.90839 44.4603 1.91316C44.452 1.92228 44.4432 1.93218 44.432 1.94515L44.3805 2.00654C44.3629 2.02832 44.3437 2.05167 44.3268 2.07424C44.2534 2.16933 44.1817 2.26547 44.1141 2.36082C44.0141 2.50197 43.9112 2.65069 43.8065 2.80541C43.7716 2.85708 43.7366 2.90931 43.7015 2.96185L43.2977 3.57419L42.8991 4.1913C42.6006 4.65413 42.2998 5.12575 42.0055 5.58784C41.9511 5.67315 41.8969 5.75804 41.8432 5.84261C41.6668 6.11977 41.4903 6.3971 41.3133 6.67426L39.726 9.16003C39.2897 9.83818 38.7139 10.7323 38.125 11.6386C37.4462 12.6826 36.7784 13.7007 36.1181 14.698C34.567 17.0413 33.0577 19.2707 31.5475 21.4491C31.2656 21.857 30.9796 22.2658 30.7025 22.6617C30.5209 22.9219 30.3325 23.191 30.1316 23.4758C30.0411 23.6039 29.9485 23.7352 29.8526 23.8704C29.5938 24.2368 29.2932 24.6622 28.9964 25.0762C28.7207 25.463 28.4369 25.8545 28.1622 26.2333L28.1317 26.2753C27.4881 27.1594 26.9122 27.9373 26.3711 28.6535C25.7818 29.4361 25.1739 30.2258 24.5638 31.0007C23.9048 31.8378 23.2953 32.593 22.6997 33.3091C22.2255 33.8808 21.7752 34.4107 21.3367 34.9137C21.1429 35.1359 20.9515 35.3526 20.7614 35.5655C20.1165 36.2885 19.5141 36.9317 18.9259 37.5236C18.8542 37.5958 18.7828 37.6675 18.7115 37.7385C18.4256 38.0188 18.191 38.2428 17.972 38.4434L18.1903 38.7237C18.5688 38.4917 18.9678 38.2146 19.4096 37.8766C19.5571 37.7632 19.7061 37.6459 19.8572 37.5236C20.1322 37.301 20.4146 37.062 20.7107 36.8014C20.7477 36.7692 20.7846 36.7363 20.822 36.7031C21.2491 36.3237 21.689 35.913 22.1668 35.4475C22.9844 34.65 23.8192 33.7824 24.7196 32.7941C25.1257 32.3478 25.5376 31.885 25.9438 31.4181C26.122 31.2136 26.3132 30.9919 26.5451 30.7208L26.6392 30.6115C26.6595 30.5881 26.6796 30.5649 26.6962 30.5445L26.7677 30.4587L27.1289 30.0132L29.4292 27.1321C29.8677 26.5836 30.2799 26.0697 30.6708 25.5829C31.0441 25.1181 31.3984 24.6778 31.7389 24.2558C33.4405 22.1476 34.9675 20.2778 36.4072 18.5408C36.5652 18.3497 36.7229 18.1597 36.8798 17.9709C37.5275 17.1917 38.163 16.4333 38.7744 15.7094C39.6318 14.6939 40.4169 13.7758 41.174 12.903C42.1978 11.7223 43.105 10.6961 43.9483 9.76552C44.7149 8.91931 45.4293 8.15226 46.1311 7.41998C47.0684 6.45043 47.9481 5.61378 48.8201 4.86284C49.3348 4.42131 49.8099 4.03995 50.2734 3.6971C50.7405 3.35128 51.176 3.05773 51.5976 2.80541C51.6778 2.75704 51.7577 2.71019 51.8371 2.66506C52.1395 2.49347 52.4158 2.3539 52.6819 2.23778C53.0208 2.09032 53.3112 1.99261 53.5947 1.92985C53.7808 1.89042 53.9388 1.87035 54.0912 1.86772C54.2961 1.8646 54.4636 1.8912 54.6192 1.95059C54.7075 1.98458 54.7937 2.03419 54.8686 2.0948C54.9407 2.15294 55.0064 2.22976 55.0574 2.31569C55.1026 2.39316 55.1375 2.48129 55.1605 2.57804C55.1804 2.6606 55.1904 2.74653 55.1922 2.841V2.84131C55.1948 2.99713 55.1751 3.1554 55.1303 3.34063C55.1126 3.4142 55.0906 3.49023 55.0627 3.57388C55.0378 3.64807 55.0097 3.72384 54.9784 3.79956C54.8686 4.06795 54.729 4.33521 54.5393 4.64006C54.2398 5.11774 53.8652 5.60282 53.3948 6.12283C53.3287 6.19615 53.2141 6.20263 53.1402 6.13738C53.104 6.10614 53.0829 6.06257 53.0802 6.01512C53.0772 5.96963 53.092 5.92608 53.1215 5.89129L53.1264 5.88603C53.583 5.38162 53.9443 4.91323 54.2322 4.45426C54.4088 4.17045 54.5435 3.91287 54.6439 3.66788C54.7031 3.52288 54.749 3.3845 54.7799 3.25668C54.8169 3.10611 54.8342 2.96869 54.8315 2.85012C54.8306 2.7116 54.8009 2.58838 54.7455 2.49394L54.7438 2.49132C54.6849 2.39408 54.6032 2.32743 54.4859 2.28064C54.3806 2.23966 54.2464 2.21985 54.0987 2.22266C53.9732 2.22419 53.8297 2.24259 53.6728 2.27642C53.4161 2.33256 53.1399 2.42607 52.8278 2.56227C52.6407 2.64421 52.448 2.73803 52.2434 2.84748C52.1697 2.88706 52.0943 2.92833 52.0169 2.97237C51.5342 3.24769 51.0348 3.57774 50.4904 3.98062C50.0358 4.31681 49.5671 4.69247 49.0571 5.1301C48.1946 5.87319 47.3227 6.70226 46.3913 7.66516C45.5446 8.54878 44.6814 9.48122 43.7311 10.5405C43.0273 11.3248 42.2757 12.1786 41.4482 13.1332C40.702 13.9933 39.9183 14.91 39.0518 15.9364C38.373 16.7397 37.678 17.5699 36.9814 18.4094C36.8831 18.5278 36.7848 18.6465 36.6865 18.7652C35.2533 20.4942 33.7273 22.3626 32.0213 24.4765C31.6177 24.9768 31.2034 25.4916 30.7815 26.0171C30.4299 26.4556 30.073 26.9014 29.7127 27.352L27.4116 30.2332L27.1206 30.5935L27.0479 30.6826L26.8211 30.9497C26.5841 31.2263 26.3922 31.4486 26.2176 31.649C25.8132 32.1139 25.3997 32.5787 24.9883 33.0308C24.0828 34.0247 23.2428 34.8975 22.4204 35.6995C21.9427 36.1653 21.4988 36.5794 21.0636 36.9662C20.5551 37.4179 20.0864 37.8075 19.6314 38.1565C19.0548 38.5972 18.5602 38.9304 18.0749 39.2052C17.7705 39.377 17.4892 39.5121 17.2163 39.6181C16.8517 39.7576 16.5574 39.8294 16.2624 39.8514C16.2144 39.8548 16.1674 39.8401 16.1312 39.8092C16.0944 39.7781 16.0724 39.7353 16.0688 39.6882C16.066 39.6528 16.0741 39.6175 16.0917 39.5869L16.1153 39.5455V39.5089C16.1209 39.47 16.139 39.4343 16.1665 39.4073L16.1767 39.3969C16.3278 39.2476 16.4844 39.0751 16.6554 38.8707C16.8016 38.6991 16.9436 38.5178 17.0812 38.3426L17.1107 38.3046C17.2986 38.0617 17.4925 37.8036 17.6977 37.5236C17.7899 37.3978 17.8842 37.2678 17.9811 37.1327C18.2395 36.7765 18.4964 36.4097 18.7444 36.0549L18.828 35.9356C19.1142 35.5272 19.3983 35.1158 19.6651 34.729L22.9904 29.8781C23.0012 29.8623 23.0121 29.8464 23.0232 29.8308C23.6524 28.9149 24.1745 28.1591 24.6636 27.4554C25.2597 26.5955 25.8506 25.7523 26.3502 25.0409L27.2002 23.837L28.0537 22.6356L29.425 20.7132L29.7667 20.234C31.9588 17.1716 33.8305 14.6004 35.5564 12.283C35.9585 11.7422 36.3532 11.2159 36.7419 10.6997C37.3167 9.93633 37.9205 9.14517 38.5349 8.34783L39.4451 7.17806C39.5772 7.00804 39.718 6.82868 39.9022 6.59713L40.3637 6.01648C40.4991 5.84598 40.6329 5.67903 40.7717 5.50712C40.936 5.30384 41.1071 5.09347 41.2955 4.86249C41.618 4.46491 41.9547 4.06453 42.245 3.72029C42.3978 3.53847 42.557 3.35514 42.711 3.17784L42.7298 3.15651C42.795 3.08166 42.8602 3.00673 42.9261 2.93267L43.0384 2.80541L44.064 1.64635L42.6816 2.67418C42.6238 2.71699 42.5655 2.7609 42.5069 2.80541C42.3752 2.90545 42.2411 3.0087 42.1067 3.11474C41.6717 3.45732 41.1845 3.85972 40.64 4.32531C39.762 5.07677 38.7352 5.99379 37.5399 7.09397C36.71 7.85778 35.8336 8.67739 34.9183 9.54323C32.8545 11.4958 30.5924 13.6833 28.2177 15.9946C27.9524 16.2523 27.6863 16.5117 27.4186 16.7729C26.5032 17.6646 25.5731 18.5731 24.6323 19.491L24.6243 19.4991C24.0306 20.0784 23.4347 20.66 22.8387 21.2412C22.1501 21.9132 21.4608 22.5849 20.7743 23.2527C18.4823 25.4823 16.219 27.6706 14.0974 29.6836C12.6268 31.0788 11.2244 32.3894 9.92825 33.5707C8.07493 35.2597 6.51862 36.6088 5.30346 37.5802L5.30079 37.5824L5.41717 37.7175L5.53386 37.8529L5.53622 37.8514C6.75702 36.8753 8.31681 35.523 10.1731 33.831C11.4283 32.6868 12.7825 31.4221 14.202 30.0769L14.4858 31.144L15.9463 37.4001C15.9656 37.4726 16.0325 37.5236 16.1085 37.5236H17.2519C17.1044 37.7226 16.9629 37.9101 16.8246 38.0888L16.7957 38.1259C16.6604 38.2984 16.5205 38.4768 16.3782 38.6442C16.2133 38.8407 16.0639 39.0052 15.9213 39.1465L15.9108 39.1565C15.8322 39.2346 15.7798 39.3355 15.7608 39.4442C15.7198 39.5282 15.7021 39.6208 15.7093 39.7149C15.7201 39.8568 15.7867 39.9859 15.8963 40.0785C15.9955 40.1621 16.1186 40.2069 16.2478 40.2069C16.2618 40.2069 16.2756 40.2063 16.2898 40.2052C16.6218 40.1805 16.9478 40.1014 17.348 39.9488C17.638 39.8358 17.9343 39.6934 18.2543 39.513C18.7547 39.2296 19.2627 38.8879 19.8525 38.4366C20.3147 38.0822 20.79 37.6872 21.3051 37.2298C21.7443 36.8391 22.1924 36.4211 22.6741 35.9516C23.5016 35.1447 24.3463 34.2665 25.2568 33.2674C25.6697 32.8137 26.0853 32.3469 26.4914 31.8801C26.6667 31.6784 26.8591 31.4555 27.0967 31.1783L27.3274 30.9066L27.6945 30.4533L29.9962 27.5711C30.2975 27.1939 30.5971 26.8204 30.8925 26.4512L30.9151 26.5395L31.2863 27.992L31.5233 28.9152L33.4945 37.3986C33.5132 37.472 33.5805 37.5236 33.6574 37.5236H37.4468C37.5179 37.5236 37.5812 37.4794 37.6051 37.4136L39.7031 30.8503C39.7194 30.8052 39.7152 30.7549 39.6909 30.7134C39.2071 29.8739 38.375 29.3001 37.4081 29.1381L33.6202 28.5055L37.4081 27.8723C38.7686 27.645 39.8377 26.5925 40.0687 25.2535L40.7118 21.5252L41.3549 25.2526C41.3595 25.2804 41.3647 25.3074 41.3698 25.335C41.3843 25.4081 41.4466 25.4627 41.5223 25.4684C41.5974 25.474 41.6674 25.4294 41.6931 25.3591L44.9652 16.3308L45.5428 14.7358L46.7856 11.3075C47.4374 9.52995 48.2112 8.15195 49.086 7.21162C49.9503 6.28194 50.9845 5.70905 52.1604 5.5087C52.2412 5.49476 52.2998 5.42615 52.2998 5.34573V3.22236C52.5397 3.08986 52.7609 2.97933 52.974 2.88644C53.2637 2.75998 53.5181 2.67387 53.7507 2.62286C53.8839 2.59412 54.0024 2.57882 54.105 2.57742C54.2036 2.5751 54.2941 2.58732 54.3522 2.61002C54.4047 2.63105 54.4201 2.64977 54.4337 2.67185C54.4433 2.68873 54.4705 2.74622 54.4711 2.85489C54.4732 2.94551 54.459 3.05261 54.4292 3.17412C54.4023 3.28511 54.3619 3.40675 54.3095 3.53506C54.2168 3.76187 54.091 4.00192 53.925 4.26829C53.6521 4.7039 53.3079 5.1502 52.8733 5.63236L52.8105 5.67254V5.70905C52.7449 5.80488 52.7132 5.91833 52.7201 6.03581C52.7285 6.17774 52.7925 6.30806 52.9005 6.40266C53.1231 6.59744 53.4653 6.57812 53.6638 6.35907C54.1487 5.82328 54.5354 5.32194 54.8465 4.82617C55.0472 4.50356 55.1955 4.21926 55.3128 3.9325C55.3469 3.84964 55.378 3.76603 55.4052 3.68457C55.4362 3.5915 55.4612 3.50557 55.4808 3.4227C55.5297 3.22158 55.5531 3.04472 55.5531 2.86988C55.5531 2.85831 55.5531 2.8467 55.5526 2.83512Z" fill="white"/>
</svg>
