<svg width="12" height="13" viewBox="0 0 12 13" fill="none" xmlns="http://www.w3.org/2000/svg">
<path d="M4.83334 0.22802C7.50274 0.22802 9.66668 2.39198 9.66668 5.06136C9.66668 6.21596 9.26181 7.27596 8.58635 8.10722L11.8535 11.3745C12.0488 11.5698 12.0488 11.8863 11.8535 12.0816C11.6761 12.2591 11.3983 12.2752 11.2025 12.13L11.1465 12.0816L7.87921 8.81436C7.04794 9.48983 5.98794 9.89469 4.83334 9.89469C2.16396 9.89469 0 7.73076 0 5.06136C0 2.39198 2.16396 0.22802 4.83334 0.22802ZM4.83334 1.22802C2.71624 1.22802 1 2.94426 1 5.06136C1 7.17842 2.71624 8.89469 4.83334 8.89469C6.95041 8.89469 8.66668 7.17842 8.66668 5.06136C8.66668 2.94426 6.95041 1.22802 4.83334 1.22802Z" fill="#60676B"/>
</svg>
