<?xml version="1.0" standalone="no"?>
<!DOCTYPE svg PUBLIC "-//W3C//DTD SVG 20010904//EN"
 "http://www.w3.org/TR/2001/REC-SVG-20010904/DTD/svg10.dtd">
<svg version="1.0" xmlns="http://www.w3.org/2000/svg"
 width="896.000000pt" height="896.000000pt" viewBox="0 0 896.000000 896.000000"
 preserveAspectRatio="xMidYMid meet">
<metadata>
Created by potrace 1.14, written by Peter Selinger 2001-2017
</metadata>
<g transform="translate(0.000000,896.000000) scale(0.100000,-0.100000)"
fill="#000000" stroke="none">
<path d="M7059 7719 c-39 -9 -136 -58 -186 -95 -17 -13 -34 -24 -38 -24 -3 0
-11 -5 -18 -10 -7 -6 -55 -44 -108 -84 -87 -65 -101 -72 -140 -71 -41 0 -71
-13 -68 -32 7 -44 -5 -70 -49 -106 -26 -20 -63 -52 -83 -70 -20 -17 -63 -55
-95 -83 -33 -29 -71 -63 -85 -75 -14 -13 -63 -58 -109 -99 -46 -41 -95 -86
-110 -100 -14 -14 -68 -63 -119 -110 -51 -47 -119 -110 -151 -140 -32 -30 -76
-72 -99 -93 -23 -22 -42 -33 -46 -27 -14 22 -18 257 -6 307 28 114 123 174
304 189 98 8 92 -6 91 224 -1 110 -5 204 -9 208 -3 4 -174 7 -378 8 -205 1
-374 2 -377 3 -7 2 128 131 138 131 17 0 41 65 35 90 -19 72 -103 78 -198 15
-31 -21 -105 -84 -163 -139 l-105 -101 -603 0 c-331 0 -606 -4 -611 -8 -4 -5
-8 -98 -8 -208 0 -163 3 -202 15 -209 8 -5 41 -9 75 -9 63 -1 93 -5 160 -22
43 -12 95 -39 95 -50 0 -12 -118 -126 -177 -171 -32 -25 -78 -56 -103 -69 -25
-13 -48 -28 -52 -34 -4 -5 -8 -6 -8 -1 0 5 -6 4 -12 -1 -13 -11 -160 -50 -190
-52 -169 -10 -317 13 -475 74 -94 36 -276 128 -280 141 -5 17 86 103 136 129
57 28 110 43 187 51 33 4 64 10 70 15 6 5 11 68 13 161 3 232 3 242 -12 253
-9 7 -428 10 -1223 9 -665 -1 -1215 -2 -1221 -3 -10 -1 -13 -49 -13 -203 0
-112 4 -207 8 -213 8 -11 6 -11 92 -19 135 -13 135 -12 18 -91 -113 -77 -287
-244 -353 -338 -86 -123 -183 -340 -209 -467 -3 -14 -8 -36 -11 -50 -7 -31
-12 -66 -24 -150 -9 -66 -7 -385 3 -430 3 -14 8 -35 10 -48 10 -49 18 -63 46
-77 40 -21 65 -19 96 8 28 25 29 28 38 182 3 55 9 111 11 125 3 14 8 41 10 60
3 19 7 46 10 60 3 14 8 36 11 50 11 52 37 135 46 148 6 6 8 12 5 12 -11 0 61
158 105 232 52 88 65 104 163 204 92 93 175 150 325 222 122 58 179 78 190 66
30 -31 130 -255 150 -334 4 -19 18 -69 30 -110 12 -41 23 -83 26 -94 2 -10 10
-42 18 -70 8 -28 17 -62 20 -76 3 -14 35 -135 71 -270 37 -135 68 -252 70
-260 2 -8 16 -60 30 -115 15 -55 29 -107 30 -115 2 -8 4 -15 5 -15 1 0 3 -7 5
-15 2 -8 11 -42 20 -75 9 -33 29 -109 45 -170 27 -103 47 -178 85 -320 38
-142 152 -570 160 -605 3 -8 11 -40 20 -70 17 -59 23 -80 29 -107 2 -10 12
-49 21 -86 16 -60 16 -69 3 -80 -13 -10 -382 -497 -456 -600 -12 -18 -28 -39
-35 -47 -6 -9 -39 -51 -71 -95 -63 -84 -382 -497 -415 -537 -276 -328 -317
-374 -516 -574 -164 -164 -252 -237 -331 -273 -75 -34 -94 -86 -52 -136 47
-54 133 -48 270 21 64 32 215 126 258 161 8 6 35 28 60 48 25 19 58 48 73 62
27 27 27 27 8 47 -20 19 -20 19 -103 -44 -46 -35 -85 -67 -88 -70 -3 -4 -50
-36 -105 -72 -164 -107 -272 -151 -317 -127 -30 16 -20 38 30 62 26 13 74 43
107 67 79 57 372 351 515 515 62 72 122 141 134 155 21 23 185 229 315 396 58
73 129 166 207 269 25 33 50 67 57 75 7 9 118 157 248 331 191 255 235 319
227 333 -7 13 0 29 34 70 24 30 50 64 58 76 8 12 20 28 26 34 6 6 24 29 40 51
16 23 35 47 42 55 7 8 36 47 64 85 29 39 57 75 63 82 19 23 31 38 75 98 65 87
63 85 83 103 9 9 17 22 17 28 0 7 4 14 8 16 4 2 44 50 87 108 44 58 82 107 85
110 3 3 48 61 100 130 52 69 119 157 150 196 30 39 64 83 75 98 42 59 100 131
107 134 5 2 8 10 8 18 0 8 3 14 8 14 4 0 18 16 31 35 13 19 31 43 40 54 9 11
25 32 36 47 11 15 26 33 33 40 6 7 12 17 12 23 0 6 3 11 8 11 4 0 18 17 32 37
14 20 30 41 35 47 6 6 44 56 85 111 41 55 77 102 80 105 3 3 18 23 35 45 16
22 33 45 38 50 4 6 42 55 83 110 42 55 83 109 92 120 9 12 51 66 92 120 41 55
77 102 80 105 3 3 17 21 30 40 13 19 27 37 30 40 3 3 17 21 30 40 13 19 27 37
30 40 3 3 19 23 36 45 16 22 34 45 39 52 21 26 34 42 130 168 55 72 104 135
110 141 5 7 19 24 30 39 50 70 291 376 338 430 47 55 261 271 297 300 29 24
95 62 117 67 13 4 27 0 33 -7 9 -11 -8 -33 -77 -102 -49 -48 -122 -131 -161
-183 -39 -52 -75 -99 -79 -105 -11 -13 -43 -63 -371 -582 -187 -295 -402 -628
-420 -649 -5 -5 -15 -21 -22 -35 -7 -13 -16 -26 -19 -29 -3 -3 -92 -133 -197
-290 -185 -276 -451 -662 -473 -687 -6 -7 -11 -17 -11 -23 0 -5 -4 -10 -10
-10 -5 0 -10 -6 -10 -14 0 -8 -4 -16 -8 -18 -4 -1 -33 -39 -63 -83 -29 -44
-57 -82 -60 -85 -3 -3 -22 -27 -41 -55 -46 -66 -240 -335 -292 -405 -23 -30
-44 -56 -48 -58 -5 -2 -8 -10 -8 -17 0 -7 -3 -15 -7 -17 -7 -2 -243 -312 -328
-428 -40 -55 -79 -105 -89 -115 -6 -5 -24 -28 -40 -50 -16 -22 -36 -47 -43
-55 -7 -8 -72 -87 -144 -175 -72 -88 -143 -174 -158 -191 -15 -17 -47 -55 -72
-84 -24 -29 -56 -66 -71 -82 -32 -34 -35 -50 -13 -68 12 -10 18 -10 32 1 18
15 146 135 223 209 25 25 119 114 208 198 235 224 587 564 889 858 46 45 83
81 83 80 0 -1 87 84 194 189 187 184 731 715 908 886 47 46 191 186 320 311
271 263 341 330 537 516 79 76 164 157 190 182 51 49 287 270 336 315 59 54
208 191 245 225 34 32 95 86 190 169 19 16 44 38 55 49 110 101 398 333 501
403 92 62 172 104 208 111 45 9 95 -15 96 -44 0 -4 -17 -16 -37 -27 -21 -11
-34 -20 -30 -21 5 0 2 -7 -7 -15 -25 -26 -396 -588 -396 -601 0 -3 -5 -10 -10
-17 -13 -15 -36 -50 -135 -207 -43 -69 -82 -127 -87 -128 -4 -2 -6 -7 -3 -12
2 -4 -4 -15 -15 -25 -11 -10 -20 -22 -20 -27 0 -5 -8 -21 -19 -36 -19 -28
-127 -193 -146 -224 -5 -9 -38 -61 -73 -115 -35 -54 -69 -107 -75 -117 -7 -11
-16 -25 -20 -30 -4 -6 -36 -54 -70 -106 -135 -208 -717 -1080 -727 -1090 -3
-3 -37 -52 -75 -110 -38 -58 -72 -107 -75 -110 -6 -6 -66 -92 -141 -205 -30
-44 -56 -82 -60 -85 -3 -3 -25 -34 -50 -70 -24 -36 -47 -66 -51 -68 -5 -2 -8
-10 -8 -17 0 -7 -3 -15 -7 -17 -5 -1 -17 -16 -29 -33 -136 -197 -327 -460
-336 -463 -4 -2 -8 -9 -8 -16 0 -7 -10 -23 -22 -36 -12 -13 -37 -46 -56 -74
-20 -28 -38 -53 -41 -56 -4 -3 -24 -30 -46 -60 -22 -30 -42 -57 -45 -60 -3 -3
-17 -21 -30 -40 -13 -19 -27 -37 -30 -40 -3 -3 -32 -41 -65 -85 -60 -80 -81
-107 -100 -129 -5 -6 -32 -40 -60 -76 -64 -84 -51 -67 -166 -210 -55 -69 -115
-143 -132 -165 -18 -21 -39 -46 -47 -55 -8 -9 -49 -56 -90 -105 -41 -50 -79
-95 -85 -101 -5 -6 -37 -42 -70 -79 -141 -161 -267 -295 -402 -429 -51 -50
-93 -93 -93 -96 1 -3 7 -14 15 -24 14 -19 18 -17 97 36 90 60 226 168 353 280
95 84 504 495 590 592 33 38 71 80 85 95 46 50 115 127 160 181 25 30 57 68
72 84 15 17 106 130 203 251 97 121 181 227 188 235 7 8 65 80 129 160 63 80
125 156 137 169 11 13 21 27 21 30 0 3 13 20 28 36 15 17 43 50 62 75 50 64
72 91 97 117 12 13 19 23 16 23 -4 0 2 8 13 19 10 10 26 27 34 38 45 56 136
169 140 173 3 3 52 64 110 135 57 72 117 143 132 159 15 17 28 33 28 36 0 4
10 18 23 32 12 14 33 38 46 54 13 16 36 43 50 59 14 17 42 51 61 75 19 24 44
54 55 66 11 12 34 39 50 60 17 21 35 42 40 48 6 6 66 79 135 161 68 83 129
155 135 161 5 6 24 28 40 49 17 22 37 46 46 54 8 9 49 57 91 106 42 50 89 104
104 122 16 18 45 51 64 74 19 23 40 47 45 53 6 6 73 83 150 171 77 88 147 167
155 175 8 9 40 44 70 79 30 35 69 77 85 95 17 18 73 79 125 137 131 143 476
489 585 586 88 77 279 233 324 263 13 8 49 34 82 58 32 23 61 42 65 42 3 0 18
9 32 19 112 79 338 161 428 155 123 -9 180 -110 140 -247 -9 -31 -16 -60 -15
-63 0 -4 -3 -10 -8 -13 -4 -3 -19 -28 -32 -56 -32 -65 -117 -188 -167 -240
-11 -13 -29 -34 -40 -47 -15 -20 -24 -23 -42 -17 -12 5 -22 13 -22 18 0 5 27
42 61 83 100 121 120 150 172 254 66 131 64 237 -6 262 -28 10 -91 10 -137 -1
-88 -19 -245 -96 -380 -186 -72 -47 -291 -212 -326 -246 -6 -5 -44 -39 -85
-74 -81 -71 -446 -434 -549 -547 -36 -39 -99 -108 -140 -154 -41 -45 -86 -95
-100 -110 -14 -15 -52 -58 -85 -95 -33 -38 -69 -78 -80 -91 -11 -12 -42 -48
-70 -80 -27 -31 -55 -62 -60 -68 -6 -6 -53 -60 -105 -121 -52 -60 -104 -121
-116 -135 -31 -35 -197 -230 -220 -259 -10 -13 -26 -31 -34 -40 -9 -9 -49 -56
-90 -106 -41 -49 -87 -103 -102 -120 -16 -16 -28 -33 -28 -36 0 -4 -15 -22
-32 -40 -18 -19 -62 -70 -97 -114 -36 -44 -72 -88 -80 -97 -9 -9 -21 -23 -26
-30 -20 -25 -140 -173 -150 -184 -5 -6 -23 -28 -40 -49 -16 -21 -44 -54 -61
-74 -16 -20 -68 -83 -115 -141 -46 -58 -86 -107 -89 -110 -5 -4 -94 -114 -137
-170 -6 -8 -27 -33 -45 -56 -84 -102 -101 -123 -148 -184 -29 -36 -61 -76 -74
-90 -12 -14 -46 -56 -76 -95 -65 -82 -81 -103 -95 -119 -6 -6 -26 -31 -45 -56
-19 -25 -42 -54 -52 -65 -9 -11 -51 -63 -93 -115 -41 -52 -81 -102 -88 -110
-7 -8 -26 -33 -42 -55 -16 -22 -32 -42 -35 -45 -3 -3 -24 -27 -45 -55 -22 -27
-49 -59 -60 -71 -11 -11 -40 -44 -65 -74 -50 -60 -112 -131 -150 -171 -14 -15
-56 -63 -95 -106 -79 -88 -490 -502 -578 -581 -32 -29 -62 -52 -67 -52 -6 0
-10 -4 -10 -8 0 -15 -223 -191 -336 -265 -81 -52 -214 -121 -259 -132 -16 -5
-37 -10 -45 -13 -8 -2 -35 -5 -60 -6 -44 -1 -45 -1 -42 29 2 19 19 47 46 75
24 25 60 68 82 95 21 28 41 52 44 55 6 6 89 118 110 150 8 13 24 35 36 49 20
24 117 165 448 645 75 109 142 208 148 220 6 11 14 23 18 26 4 3 35 48 71 100
35 52 69 101 76 108 7 7 13 17 13 21 0 4 8 17 18 29 9 11 46 64 82 117 36 53
73 106 82 117 10 11 20 29 23 39 4 11 10 19 14 19 4 0 16 16 27 35 10 19 22
35 26 35 5 0 8 4 8 10 0 8 47 77 97 145 5 6 32 46 62 90 30 44 57 82 61 85 3
3 23 32 45 65 22 33 43 62 46 65 3 3 30 41 59 85 30 44 57 82 60 85 3 3 33 43
65 90 33 47 63 87 67 88 4 2 8 10 8 18 0 8 5 14 10 14 6 0 10 5 10 10 0 12 15
32 43 58 9 9 17 20 17 25 0 6 101 151 128 183 5 5 15 20 21 33 7 12 20 31 29
41 9 10 35 44 57 75 22 32 45 63 51 69 6 6 17 23 24 36 7 14 19 32 27 40 7 8
36 47 63 85 54 76 65 91 126 174 22 31 61 85 87 121 25 36 50 70 54 75 5 6 20
26 33 45 13 19 28 40 33 45 15 19 348 470 370 502 18 26 402 535 429 568 4 6
38 49 76 96 141 181 307 392 317 403 6 6 26 31 45 56 19 25 37 47 40 50 3 3
39 46 80 95 41 50 80 96 87 103 7 7 29 34 50 60 21 25 47 56 58 67 43 43 145
163 145 171 0 4 -8 0 -17 -10 -10 -9 -76 -61 -148 -114 -71 -54 -139 -105
-150 -114 -19 -16 -45 -37 -144 -118 -70 -58 -169 -143 -230 -200 -21 -19 -62
-55 -90 -80 -29 -25 -70 -61 -91 -80 -43 -40 -210 -193 -249 -229 -91 -83
-321 -300 -543 -513 -269 -257 -301 -289 -547 -526 -128 -125 -277 -270 -331
-322 -120 -115 -607 -591 -809 -789 -80 -79 -242 -236 -359 -350 -117 -113
-264 -255 -326 -316 -95 -92 -309 -297 -536 -515 -180 -173 -283 -270 -395
-375 -70 -66 -147 -138 -170 -160 -41 -39 -203 -189 -249 -230 -12 -11 -62
-56 -110 -100 -94 -86 -96 -87 -206 -185 -40 -36 -78 -69 -84 -75 -6 -5 -40
-35 -76 -65 -36 -30 -67 -57 -70 -60 -3 -3 -32 -28 -65 -55 -33 -28 -62 -52
-65 -55 -3 -3 -27 -24 -55 -45 -64 -51 -67 -56 -48 -77 21 -23 22 -23 64 15
62 55 89 77 94 77 2 0 17 12 33 27 16 16 69 62 117 103 115 97 376 327 395
348 9 10 51 48 94 87 44 38 96 86 117 105 20 19 87 82 149 140 62 58 138 130
170 160 109 104 161 150 169 150 7 0 51 -162 76 -278 8 -38 117 -503 136 -582
12 -47 23 -96 25 -110 3 -14 8 -34 11 -45 3 -11 7 -29 9 -40 2 -11 9 -42 17
-70 l13 -50 102 -3 102 -3 -67 -87 c-37 -48 -85 -106 -106 -129 -56 -60 -66
-76 -71 -117 -4 -29 1 -41 25 -67 27 -29 33 -31 77 -26 148 16 324 104 557
280 44 33 82 63 85 66 3 3 32 29 65 56 140 117 442 409 603 584 48 51 96 103
107 115 31 33 179 199 190 213 6 7 21 26 35 41 75 83 113 129 170 202 19 25
42 54 52 65 9 11 101 126 205 255 103 130 204 255 223 278 l34 43 19 -73 c16
-66 21 -88 32 -138 2 -8 4 -15 5 -15 1 0 3 -7 5 -15 2 -8 17 -69 34 -135 17
-66 35 -142 41 -170 13 -63 27 -126 80 -350 50 -211 60 -253 64 -280 2 -11 11
-47 19 -80 9 -33 18 -72 21 -87 8 -37 10 -45 54 -233 21 -88 42 -168 48 -178
10 -17 32 -18 324 -17 237 0 316 3 322 13 4 6 26 68 48 137 21 69 53 168 70
220 17 52 33 102 35 110 4 16 63 202 122 380 37 113 37 112 54 181 11 44 10
48 -19 92 -45 64 -116 122 -197 161 -64 31 -89 39 -165 52 -28 5 -92 17 -100
19 -3 0 -30 5 -60 9 -30 4 -62 9 -70 11 -17 3 -263 43 -297 48 -48 7 -30 15
69 30 57 9 114 19 128 21 14 3 95 17 180 30 189 31 204 34 232 45 13 5 25 8
28 7 3 0 32 12 65 28 111 55 201 154 247 271 13 34 36 124 44 175 12 82 25
158 30 184 2 11 15 86 29 165 23 137 34 177 36 135 0 -10 3 -28 5 -39 3 -11 7
-33 9 -50 3 -16 7 -41 10 -55 3 -14 7 -41 10 -60 3 -19 7 -46 10 -60 3 -14 14
-81 26 -149 28 -166 27 -163 38 -174 12 -12 40 -2 46 15 2 7 63 175 135 373
72 198 133 367 135 375 2 8 4 15 5 15 1 0 3 7 5 15 3 13 45 128 62 170 3 8 7
20 9 25 1 6 21 60 43 120 23 61 44 117 46 126 2 9 15 46 29 81 14 36 26 67 26
71 0 3 5 18 12 34 6 15 12 30 12 33 1 3 6 19 13 35 16 42 79 217 161 445 96
266 155 423 187 495 50 113 139 282 156 295 3 3 12 17 20 31 8 15 25 41 39 60
31 41 195 209 204 209 4 0 16 8 26 18 48 45 207 115 310 137 59 12 59 13 59
178 0 84 0 162 0 174 2 39 200 123 294 123 30 0 39 -5 46 -22 9 -25 9 -32 -8
-96 -21 -77 -123 -239 -214 -339 -16 -18 -35 -41 -42 -50 -42 -62 50 -155 113
-116 25 16 62 50 62 58 0 3 8 13 18 23 27 29 55 64 82 102 13 19 27 37 30 40
22 20 105 188 123 251 19 61 15 165 -7 208 -16 30 -69 84 -85 87 -3 0 -13 3
-21 6 -128 49 -323 -6 -575 -163 l-40 -25 -527 0 c-289 1 -530 4 -534 9 -4 4
-2 7 4 7 6 0 13 8 16 18 3 9 20 31 37 47 93 90 88 82 79 120 -9 40 -41 73 -79
81 -14 3 -30 7 -36 8 -5 2 -26 -1 -46 -5z m-2734 -554 c1 -193 -154 -528 -316
-684 -25 -24 -47 -43 -124 -107 -61 -50 -241 -128 -346 -150 -78 -16 -339 -27
-339 -14 0 3 -12 5 -27 6 -16 0 -41 4 -58 8 -16 4 -43 9 -60 11 -101 15 -397
138 -555 231 -273 161 -548 287 -695 320 -40 9 -174 32 -190 33 -108 6 -182 2
-294 -15 -65 -11 -216 -65 -317 -114 -91 -45 -220 -124 -249 -153 -6 -7 -27
-26 -46 -42 -89 -79 -193 -222 -253 -348 -35 -75 -89 -225 -100 -277 -3 -14
-12 -61 -21 -105 -20 -95 -23 -129 -29 -258 -3 -53 -8 -102 -11 -107 -7 -12
-45 -14 -46 -2 0 4 -2 14 -4 22 -11 46 -14 67 -21 152 -11 141 -3 311 20 425
3 15 8 43 11 62 3 19 10 42 16 52 5 11 7 19 5 19 -12 0 68 199 110 277 153
281 430 510 773 640 195 74 458 97 661 58 23 -4 128 -27 140 -30 91 -24 232
-73 310 -108 75 -33 302 -146 355 -177 181 -103 361 -180 510 -218 140 -35
367 -37 455 -4 14 5 27 10 30 10 29 3 143 61 216 109 103 67 249 228 364 398
19 28 38 53 44 57 6 4 8 8 3 8 -8 0 22 51 38 62 26 19 40 2 40 -47z m2219 -47
c-38 -46 -85 -103 -104 -128 -19 -25 -43 -54 -52 -65 -9 -11 -55 -69 -103
-130 -47 -60 -91 -117 -98 -125 -7 -8 -26 -33 -42 -55 -17 -22 -34 -45 -40
-51 -31 -36 -45 -55 -45 -63 0 -5 -4 -11 -8 -13 -4 -1 -37 -41 -72 -88 -35
-47 -68 -86 -72 -88 -4 -2 -8 -8 -8 -14 0 -5 -6 -15 -12 -22 -15 -15 -27 -31
-134 -174 -42 -57 -78 -101 -81 -99 -2 3 -13 42 -24 88 -29 118 -29 121 -35
149 -2 14 -6 30 -9 37 -3 11 38 54 182 189 116 109 255 238 290 269 21 18 67
61 103 95 36 34 82 75 102 91 20 17 49 42 65 57 61 56 121 109 172 152 30 25
61 53 70 62 8 10 17 15 19 13 3 -2 -26 -42 -64 -87z m361 -183 c67 -33 128
-100 152 -168 18 -55 23 -201 10 -287 -7 -42 -14 -53 -87 -131 -14 -14 -54
-59 -90 -100 -36 -40 -87 -99 -115 -129 -27 -31 -66 -74 -85 -96 -19 -22 -60
-69 -90 -104 -30 -34 -63 -72 -73 -84 -10 -12 -37 -43 -60 -70 -23 -27 -47
-54 -52 -60 -17 -18 -174 -202 -269 -316 -93 -111 -142 -169 -177 -210 -12
-14 -34 -40 -50 -59 -32 -39 -38 -37 -49 16 -5 21 -11 49 -15 63 -3 14 -8 36
-10 50 -2 14 -8 36 -13 50 -5 14 -10 28 -10 33 0 4 -6 32 -12 62 -13 61 -13
60 62 173 26 41 48 78 48 83 0 5 5 9 10 9 6 0 14 8 17 18 6 14 63 103 123 192
10 14 55 84 270 416 52 81 97 152 99 158 2 6 7 13 10 16 4 3 43 64 88 135 45
72 87 135 93 142 5 7 15 24 22 38 6 14 15 25 20 25 4 0 8 4 8 10 0 5 23 45 50
89 l51 79 35 -8 c19 -5 59 -20 89 -35z m-2705 -352 c0 -13 -163 -241 -217
-303 -7 -8 -66 -85 -131 -170 -65 -85 -169 -222 -232 -305 -63 -82 -138 -181
-167 -220 -29 -38 -61 -80 -70 -92 -10 -11 -81 -105 -158 -207 -77 -102 -142
-185 -145 -185 -4 -1 -19 50 -34 112 -16 61 -35 132 -42 157 -49 174 -234 875
-234 889 0 8 6 9 18 2 45 -24 244 -83 322 -95 19 -3 46 -8 60 -11 35 -7 246
-8 297 -1 109 15 216 48 323 99 36 17 67 33 70 36 3 3 31 23 63 45 69 47 181
158 228 225 32 48 49 56 49 24z m2698 -675 c-28 -79 -66 -188 -85 -243 -19
-55 -37 -107 -40 -115 -3 -8 -7 -22 -9 -30 -2 -8 -7 -23 -13 -35 -9 -19 -21
-52 -20 -58 0 -2 -69 -195 -78 -217 -3 -8 -7 -20 -8 -26 -2 -7 -16 -50 -33
-95 -16 -46 -49 -138 -72 -204 -23 -66 -46 -133 -53 -150 -6 -16 -12 -34 -14
-40 -3 -14 -99 -290 -105 -301 -2 -5 -11 -29 -18 -54 -7 -25 -17 -49 -20 -55
-4 -5 -11 -23 -15 -40 -12 -45 -12 -43 -47 -145 -19 -52 -36 -99 -39 -105 -3
-5 -16 -43 -29 -82 -24 -73 -31 -82 -35 -41 -1 13 -4 30 -8 38 -4 13 -72 303
-82 350 -2 8 -13 56 -25 105 -12 50 -24 101 -26 115 -3 14 -10 43 -16 65 -6
22 -12 49 -14 60 -1 11 -10 49 -19 85 -9 36 -18 78 -21 94 -3 16 -9 39 -14 51
-8 20 1 47 24 71 6 6 25 28 41 48 17 21 39 47 50 60 11 12 36 42 55 66 19 24
42 51 50 60 8 8 56 64 105 124 50 60 100 119 113 132 12 13 22 28 22 34 0 5 4
10 8 10 5 0 30 27 58 61 27 33 63 75 79 93 17 18 48 54 69 80 21 26 51 60 65
75 14 16 37 41 51 57 122 141 213 244 215 244 1 0 -20 -64 -47 -142z m-2814
-143 c-8 -19 -12 -35 -9 -35 4 0 3 -6 -2 -12 -4 -7 -8 -17 -9 -23 -2 -5 -34
-102 -74 -215 -39 -113 -72 -212 -75 -220 -2 -8 -33 -103 -70 -210 -37 -107
-76 -224 -87 -260 -20 -59 -30 -73 -132 -173 -61 -59 -161 -157 -223 -218
-118 -115 -114 -114 -128 -50 -8 32 -12 51 -33 124 l-20 68 59 82 c31 45 61
87 66 92 5 6 56 78 113 160 58 83 108 155 113 160 8 10 197 284 220 319 6 10
20 29 30 41 9 13 17 26 17 30 0 3 6 12 13 19 6 7 64 90 127 184 63 95 116 172
117 172 1 0 -5 -16 -13 -35z m484 -648 c19 -72 35 -139 37 -148 2 -9 13 -53
25 -96 12 -44 23 -86 24 -94 7 -34 18 -76 28 -102 10 -25 6 -35 -38 -99 -27
-40 -55 -79 -63 -88 -7 -8 -46 -62 -87 -120 -40 -58 -77 -109 -81 -115 -5 -5
-78 -109 -163 -230 -85 -121 -157 -222 -160 -225 -3 -3 -17 -23 -30 -45 -13
-22 -27 -42 -30 -45 -4 -3 -31 -41 -60 -85 -29 -44 -56 -82 -60 -85 -3 -3 -23
-32 -45 -65 -21 -33 -41 -62 -44 -65 -4 -3 -19 -24 -34 -47 -28 -44 -46 -59
-27 -22 6 11 13 28 15 37 2 9 51 161 110 337 58 176 108 327 110 335 2 8 13
42 24 75 37 103 42 118 71 210 16 50 52 155 80 235 56 162 54 154 65 195 4 17
10 35 14 40 3 6 6 15 8 20 1 6 16 48 33 95 17 47 33 93 35 102 2 9 9 27 15 40
14 27 171 186 185 187 6 1 25 -59 43 -132z m-963 -774 c-2 -10 -4 -18 -5 -18
-1 0 -3 -7 -5 -15 -2 -8 -22 -69 -45 -135 -23 -66 -43 -124 -45 -130 -1 -5 -7
-23 -14 -39 -6 -16 -13 -36 -15 -45 -2 -9 -8 -29 -14 -44 -7 -16 -12 -34 -12
-41 0 -7 -3 -16 -7 -20 -5 -4 -9 -12 -9 -17 -1 -5 -2 -13 -3 -19 -2 -14 -18
-12 -18 3 0 6 -13 57 -28 112 -50 182 -58 149 68 272 60 59 119 118 130 131
25 27 26 27 22 5z m1259 -383 c3 -19 10 -50 15 -68 10 -33 7 -38 -67 -130 -42
-53 -84 -106 -94 -117 -19 -23 -143 -177 -350 -436 -81 -101 -159 -197 -173
-214 -15 -16 -45 -52 -68 -79 -23 -27 -51 -59 -62 -71 -11 -11 -38 -41 -59
-65 -177 -203 -624 -660 -644 -660 -21 0 57 105 151 202 15 16 27 31 27 33 0
3 8 13 18 24 39 42 72 81 152 181 47 58 90 110 95 116 6 6 24 28 40 48 17 21
37 46 45 56 8 10 42 53 75 95 33 43 72 92 86 109 14 17 68 87 119 156 52 69
97 127 100 130 3 3 29 38 58 78 29 40 59 80 67 90 8 9 78 105 155 212 78 107
147 203 155 213 8 9 15 20 15 23 0 2 4 10 10 17 26 32 58 76 80 110 l25 37 11
-27 c7 -16 15 -44 18 -63z"/>
</g>
</svg>
